<svg version="1.0" xmlns="http://www.w3.org/2000/svg"
 width="1080.000000pt" height="126.000000pt" viewBox="0 0 1080.000000 126.000000"
 preserveAspectRatio="xMidYMid meet">

<g transform="translate(0.000000,126.000000) scale(0.100000,-0.100000)" stroke="none">
<path d="M9803 1090 c-17 -10 -37 -28 -42 -39 -6 -11 -11 -80 -11 -160 l0
-141 -4710 0 -4710 0 0 -120 0 -120 4710 0 4710 0 0 -146 0 -146 29 -28 c35
-35 73 -46 116 -33 18 6 148 96 289 199 226 168 257 194 272 231 14 36 14 47
3 81 -12 35 -41 60 -259 223 -135 101 -261 191 -280 201 -44 23 -77 23 -117
-2z"/>
</g>
</svg>
