<?xml version="1.0" standalone="no"?>
<!DOCTYPE svg PUBLIC "-//W3C//DTD SVG 20010904//EN"
 "http://www.w3.org/TR/2001/REC-SVG-20010904/DTD/svg10.dtd">
<svg version="1.0" xmlns="http://www.w3.org/2000/svg"
 width="1080.000000pt" height="1080.000000pt" viewBox="0 0 1080.000000 1080.000000"
 preserveAspectRatio="xMidYMid meet">

<g transform="translate(0.000000,1080.000000) scale(0.100000,-0.100000)"
fill="#2EC774" stroke="none">
<path d="M20 10770 c-20 -20 -20 -33 -20 -5377 0 -3383 4 -5364 10 -5373 8
-12 26 1 96 70 344 339 749 849 962 1211 119 201 337 664 415 879 25 69 70
188 100 265 56 144 248 728 310 940 94 328 127 450 152 560 142 647 202 874
336 1281 101 308 152 441 240 616 222 446 529 816 995 1204 218 181 455 333
774 493 176 89 580 269 720 321 41 15 131 52 200 82 69 31 159 68 200 83 41
15 118 46 170 67 52 22 144 57 205 78 108 38 327 125 740 295 116 47 280 115
365 150 657 270 1137 611 1473 1045 53 69 131 166 172 215 91 108 191 254 350
510 64 105 144 231 176 280 32 50 59 99 59 108 0 16 -276 17 -4590 17 -4577 0
-4590 0 -4610 -20z"/>
</g>
</svg>
