<?xml version="1.0" standalone="no"?>
<!DOCTYPE svg PUBLIC "-//W3C//DTD SVG 20010904//EN"
 "http://www.w3.org/TR/2001/REC-SVG-20010904/DTD/svg10.dtd">
<svg version="1.0" xmlns="http://www.w3.org/2000/svg"
 width="1080.000000pt" height="1080.000000pt" viewBox="0 0 1080.000000 1080.000000"
 preserveAspectRatio="xMidYMid meet">

<g transform="translate(0.000000,1080.000000) scale(0.100000,-0.100000)"
fill="#000000" stroke="none">
<path d="M6676 10724 c-198 -48 -352 -197 -412 -400 -22 -75 -22 -207 0 -294
41 -158 168 -304 321 -368 109 -46 89 -46 1185 -49 l1044 -4 -2066 -2067
c-1136 -1137 -2080 -2088 -2097 -2114 -109 -163 -120 -397 -29 -572 43 -81
156 -195 233 -233 95 -49 158 -63 269 -63 110 0 189 21 283 75 32 18 738 717
2123 2101 1141 1141 2078 2074 2083 2074 4 0 7 -469 7 -1043 0 -904 2 -1051
15 -1102 47 -183 181 -326 367 -393 134 -48 297 -33 442 40 82 41 191 153 233
239 67 135 63 15 63 1940 0 1707 0 1748 -20 1823 -25 100 -61 165 -133 242
-68 73 -132 117 -225 153 l-67 26 -1780 2 c-1512 1 -1789 -1 -1839 -13z"/>
<path d="M1635 9610 c-224 -15 -423 -68 -630 -170 -475 -233 -793 -644 -917
-1185 l-23 -100 -3 -3235 c-2 -2117 1 -3270 7 -3337 48 -479 285 -898 676
-1195 159 -120 384 -227 585 -277 214 -53 40 -51 3502 -51 3491 0 3295 -3
3522 54 610 155 1094 663 1226 1288 38 177 41 331 38 1688 -3 1200 -5 1310
-21 1363 -30 102 -76 178 -153 255 -109 109 -237 162 -392 162 -263 -1 -493
-188 -547 -445 -12 -59 -15 -273 -15 -1407 0 -931 -3 -1353 -11 -1390 -21
-101 -75 -196 -158 -278 -89 -88 -173 -134 -288 -156 -114 -22 -6294 -21
-6398 1 -207 43 -374 201 -432 405 -17 62 -18 197 -18 3240 l0 3175 22 70 c63
200 224 349 422 391 55 11 297 14 1401 14 1474 1 1401 -2 1538 65 221 110 343
367 291 617 -40 195 -202 364 -406 425 -53 16 -163 18 -1378 19 -726 1 -1374
-2 -1440 -6z"/>
</g>
</svg>
