<?xml version="1.0" standalone="no"?>
<!DOCTYPE svg PUBLIC "-//W3C//DTD SVG 20010904//EN"
 "http://www.w3.org/TR/2001/REC-SVG-20010904/DTD/svg10.dtd">
<svg version="1.0" xmlns="http://www.w3.org/2000/svg"
 width="1080.000000pt" height="1080.000000pt" viewBox="0 0 1080.000000 1080.000000"
 preserveAspectRatio="xMidYMid meet">

<g transform="translate(0.000000,1080.000000) scale(0.100000,-0.100000)"
fill="#2EC774" stroke="none">
<path d="M4331 10649 c-199 -22 -469 -102 -746 -221 -280 -120 -443 -219 -605
-366 -41 -37 -140 -111 -220 -164 -230 -154 -341 -259 -492 -468 -29 -41 -142
-163 -249 -270 -207 -207 -289 -312 -383 -493 -24 -47 -81 -135 -126 -197
-104 -140 -155 -230 -208 -363 -184 -461 -231 -1106 -121 -1657 91 -456 310
-874 584 -1116 204 -180 397 -279 696 -354 315 -80 581 -201 808 -370 93 -69
89 -53 71 -245 -39 -418 -120 -897 -256 -1504 -30 -134 -61 -284 -69 -334 -86
-534 81 -1122 448 -1577 85 -105 246 -263 351 -345 188 -146 444 -280 650
-340 103 -29 292 -65 347 -65 21 0 98 -20 172 -45 294 -97 519 -120 822 -84
81 10 103 9 195 -10 261 -55 494 -52 790 9 52 10 162 24 243 30 552 39 1007
305 1310 765 118 179 186 340 327 770 280 857 543 2013 660 2907 19 146 24
164 69 260 253 541 391 1060 391 1473 0 234 -40 444 -120 626 -23 52 -59 147
-80 212 -48 144 -129 303 -213 417 -35 47 -84 128 -110 181 -64 133 -154 264
-251 367 -45 48 -105 116 -133 152 -75 96 -206 217 -303 282 -220 146 -420
213 -711 238 -105 10 -128 15 -147 33 -35 32 -235 294 -412 538 -206 283 -297
396 -405 504 -154 153 -306 254 -494 330 -89 35 -164 55 -466 120 -252 54
-455 114 -750 220 -392 141 -620 182 -864 154z m428 -94 c94 -21 291 -83 536
-170 240 -84 454 -144 704 -195 248 -51 370 -88 496 -152 112 -56 165 -91 277
-185 130 -110 197 -192 641 -793 55 -74 127 -168 159 -207 33 -40 56 -73 51
-73 -5 0 -47 5 -93 11 -96 12 -75 -2 -315 204 -77 66 -279 257 -450 425 -401
395 -520 495 -715 598 -116 62 -240 106 -368 131 -117 24 -168 28 -427 41
-282 14 -586 52 -805 100 -260 57 -566 75 -751 44 -101 -17 -250 -61 -338
-100 -30 -14 -56 -23 -58 -21 -6 7 292 145 432 200 207 82 419 140 585 161 78
9 367 -3 439 -19z m-584 -296 c50 -6 171 -26 270 -44 336 -63 565 -90 840
-100 321 -12 518 -54 710 -152 186 -94 293 -181 605 -488 297 -292 398 -388
558 -529 67 -60 121 -111 118 -113 -12 -12 -194 36 -286 76 -290 125 -583 290
-1050 593 -405 262 -549 339 -749 402 -212 67 -451 78 -721 32 -342 -57 -573
-78 -1025 -91 -282 -8 -432 -30 -592 -84 -53 -18 -80 -24 -75 -16 4 8 40 52
81 100 78 91 118 118 297 208 269 135 469 198 694 221 50 5 219 -3 325 -15z
m870 -401 c156 -30 332 -102 520 -211 39 -22 178 -110 310 -195 311 -200 461
-292 615 -377 199 -109 246 -137 225 -131 -323 81 -683 212 -1040 376 -110 51
-282 130 -381 176 -230 106 -353 154 -485 192 -148 43 -206 53 -364 59 -181 7
-329 -17 -565 -92 -258 -82 -506 -140 -830 -195 -249 -42 -424 -78 -512 -106
-19 -6 -19 -5 -3 27 10 18 44 74 77 125 l59 92 92 40 c212 93 360 118 780 132
425 14 607 30 902 81 230 40 423 42 600 7z m-2389 -157 c-28 -35 -67 -72 -99
-91 -28 -17 -63 -38 -77 -47 -40 -27 58 73 135 138 39 32 74 59 78 59 5 0 -12
-27 -37 -59z m1843 -31 c233 -18 387 -70 866 -290 538 -247 668 -301 967 -399
194 -63 412 -122 613 -167 66 -14 176 -49 245 -76 69 -28 188 -71 265 -98 126
-43 153 -56 259 -130 66 -46 177 -118 248 -161 97 -59 157 -105 246 -188 197
-184 509 -435 753 -605 68 -48 151 -106 184 -129 l61 -44 27 -119 c87 -384
120 -730 120 -1244 -1 -513 -13 -672 -79 -997 -54 -268 -56 -275 -140 -480
-113 -274 -147 -345 -234 -488 -613 -1005 -1727 -2326 -2720 -3226 -140 -127
-230 -199 -334 -269 -91 -61 -71 -64 -208 35 -107 77 -305 275 -390 389 -81
108 -173 269 -226 396 -23 52 -93 266 -156 475 -349 1151 -607 1742 -972 2232
-57 76 -123 180 -163 258 -37 72 -90 166 -117 210 -40 64 -55 102 -77 193 -16
62 -46 167 -68 235 -31 95 -44 158 -59 284 -44 367 -123 653 -259 928 -133
270 -248 424 -505 680 -193 191 -249 257 -323 382 -293 495 -264 1146 84 1876
l56 117 92 29 c130 42 193 55 497 106 301 50 549 107 798 185 202 63 267 78
395 95 128 16 110 16 254 5z m-2003 -205 c-9 -13 -32 -53 -51 -89 -34 -61 -40
-66 -136 -119 l-99 -55 27 48 c16 26 57 71 93 101 69 58 173 138 179 139 2 0
-4 -11 -13 -25z m-181 -334 c-83 -165 -176 -441 -218 -651 -73 -359 -60 -704
37 -988 83 -243 173 -378 426 -637 257 -262 349 -379 469 -592 114 -203 208
-464 261 -723 16 -83 30 -156 30 -163 0 -6 -28 38 -61 98 -197 356 -450 628
-794 857 -340 227 -533 495 -634 882 -61 231 -74 556 -33 821 48 313 150 646
285 935 28 60 45 83 83 110 60 44 168 109 172 105 2 -2 -8 -26 -23 -54z m-255
-35 c0 -2 -8 -10 -17 -17 -16 -13 -17 -12 -4 4 13 16 21 21 21 13z m-126 -271
c-44 -100 -114 -314 -148 -455 -62 -251 -86 -432 -86 -658 0 -476 117 -834
374 -1144 78 -94 208 -205 355 -302 352 -234 615 -528 805 -901 87 -169 113
-247 121 -360 l7 -100 -128 125 c-253 247 -490 403 -814 536 -244 99 -385 189
-530 337 -120 122 -198 234 -276 392 -101 207 -168 438 -195 675 -16 136 -16
493 0 640 27 265 88 547 159 745 60 167 74 193 148 285 73 91 225 253 231 247
2 -2 -8 -30 -23 -62z m5784 -148 c31 -28 47 -58 30 -53 -7 3 -38 12 -68 22
-30 9 -68 28 -85 42 l-30 25 65 -7 c46 -5 72 -14 88 -29z m334 -22 c206 -43
438 -153 578 -275 l35 -31 -40 17 c-131 55 -232 89 -363 120 -81 19 -197 48
-259 65 -108 30 -113 32 -154 82 l-43 50 86 -6 c48 -4 120 -14 160 -22z m124
-225 c274 -65 397 -110 529 -192 126 -80 187 -141 254 -252 35 -59 62 -109 59
-111 -2 -2 -24 8 -48 23 -25 15 -97 52 -160 81 -170 80 -450 222 -570 290 -75
42 -125 80 -175 130 -38 39 -67 71 -63 71 3 0 82 -18 174 -40z m-6725 -238
c-35 -117 -73 -298 -98 -467 -26 -174 -26 -672 0 -830 91 -548 301 -931 655
-1193 112 -83 186 -123 366 -199 399 -169 646 -340 898 -621 87 -97 87 -97 88
-152 0 -84 -8 -89 -71 -42 -214 159 -510 290 -864 382 -272 71 -474 186 -665
379 -172 173 -291 362 -394 621 -204 517 -224 1337 -45 1885 36 112 146 352
156 342 2 -3 -9 -50 -26 -105z m7089 -163 c74 -37 187 -91 250 -122 64 -30
157 -82 207 -116 l91 -61 31 -85 c54 -149 60 -146 -87 -46 -202 137 -642 479
-642 499 0 5 -10 9 150 -69z m718 -481 c11 -24 27 -68 36 -98 l16 -55 -24 25
c-19 20 -66 144 -66 175 0 16 19 -8 38 -47z m192 -283 c0 -16 -27 28 -34 55
-5 19 -2 16 13 -10 11 -19 20 -39 21 -45z m-77 -103 c46 -238 68 -487 66 -744
-2 -163 -2 -163 -10 -63 -4 55 -13 163 -19 240 -13 161 -40 361 -76 552 -13
73 -24 136 -24 139 0 4 11 -2 23 -14 18 -17 28 -45 40 -110z m127 -102 c50
-74 56 -88 75 -200 51 -293 32 -708 -51 -1105 -31 -149 -95 -397 -102 -391 -2
3 8 89 22 193 77 554 86 1058 27 1447 -9 64 -16 116 -14 116 1 0 20 -27 43
-60z m206 -540 c13 -81 15 -146 11 -290 -7 -260 -50 -493 -144 -785 -35 -111
-184 -498 -189 -493 -1 2 24 87 56 189 157 502 227 875 237 1262 3 125 7 226
9 224 2 -2 11 -50 20 -107z m-6210 -1928 c8 -18 14 -42 12 -53 -3 -18 -6 -17
-40 11 -35 29 -38 35 -38 83 l1 52 24 -30 c14 -16 32 -45 41 -63z m38 -220
c10 -47 35 -262 46 -392 28 -321 22 -1082 -11 -1575 -24 -354 -11 -569 51
-804 131 -499 496 -979 948 -1245 45 -27 82 -50 82 -51 0 -8 -149 32 -248 67
-610 209 -1109 758 -1276 1402 -40 156 -58 296 -58 466 0 189 10 263 72 546
102 459 175 841 220 1148 18 125 60 502 60 542 0 25 108 -72 114 -104z m5671
-138 c-107 -676 -283 -1470 -470 -2119 -101 -354 -268 -843 -335 -982 -177
-370 -445 -642 -790 -801 -128 -60 -324 -117 -460 -136 -44 -6 -44 -5 40 39
236 125 517 399 664 648 63 107 249 477 356 707 304 657 636 1533 850 2244 73
246 170 600 170 625 0 8 2 12 6 9 3 -3 -11 -109 -31 -234z m-5425 -177 c213
-502 359 -1097 505 -2061 55 -359 66 -418 111 -555 43 -132 153 -359 232 -476
156 -233 371 -443 617 -603 l70 -46 -55 -12 c-66 -16 -242 -34 -320 -34 -49 0
-72 8 -180 63 -534 270 -923 738 -1070 1291 -64 238 -72 420 -43 870 13 196
17 402 17 826 1 556 -5 673 -40 934 l-5 41 55 -60 c44 -48 66 -84 106 -178z
m5235 -78 c-166 -568 -435 -1319 -688 -1919 -218 -518 -482 -1057 -608 -1241
-199 -290 -478 -508 -797 -623 -72 -26 -76 -26 -195 -15 -117 10 -366 54 -377
66 -3 3 0 8 6 10 25 9 159 95 231 150 155 115 269 240 561 612 665 848 1421
2081 1852 3024 35 75 65 135 67 133 2 -2 -21 -91 -52 -197z m-4968 -253 c266
-445 484 -997 763 -1930 108 -362 144 -459 225 -614 143 -270 378 -536 605
-686 l52 -35 -68 -34 c-115 -57 -181 -80 -209 -73 -40 10 -268 169 -373 259
-225 194 -412 454 -526 730 -62 149 -94 288 -152 661 -122 787 -222 1254 -365
1691 -75 232 -73 233 48 31z m4612 -218 c-12 -24 -73 -136 -135 -249 -438
-802 -1022 -1687 -1552 -2354 -226 -284 -405 -445 -639 -575 l-92 -52 -88 32
c-89 33 -303 138 -303 149 0 3 28 24 63 47 262 172 946 834 1483 1434 455 508
893 1057 1233 1548 24 34 46 62 48 62 2 0 -6 -19 -18 -42z m-2749 -3171 c80
-41 161 -80 180 -87 l35 -12 -35 -15 c-19 -8 -72 -24 -118 -35 l-83 -21 -77
22 c-97 28 -282 100 -282 110 0 4 40 24 89 44 49 21 97 44 107 52 11 8 24 15
29 15 6 0 76 -33 155 -73z m-409 -111 c41 -18 103 -44 139 -57 l65 -24 -60 -6
c-122 -11 -465 28 -523 60 -8 5 19 12 70 20 45 6 108 18 138 25 81 20 91 19
171 -18z m841 -55 c62 -16 143 -33 178 -37 58 -7 62 -8 35 -16 -35 -10 -325
-12 -382 -3 -21 3 -54 8 -73 11 -34 6 -34 6 45 39 44 18 81 34 82 34 1 1 53
-12 115 -28z"/>
</g>
</svg>
