<?xml version="1.0" standalone="no"?>
<!DOCTYPE svg PUBLIC "-//W3C//DTD SVG 20010904//EN"
 "http://www.w3.org/TR/2001/REC-SVG-20010904/DTD/svg10.dtd">
<svg version="1.0" xmlns="http://www.w3.org/2000/svg"
 width="1080.000000pt" height="1080.000000pt" viewBox="0 0 1080.000000 1080.000000"
 preserveAspectRatio="xMidYMid meet">

<g transform="translate(0.000000,1080.000000) scale(0.100000,-0.100000)"
fill="#2EC774" stroke="none">
<path d="M125 10783 c4 -10 9 -38 11 -63 41 -475 69 -637 153 -885 21 -63 37
-115 35 -115 -9 0 -182 110 -192 122 -9 12 -34 126 -81 384 -12 61 -27 129
-35 150 -14 37 -15 34 -15 -86 0 -89 6 -160 22 -247 l23 -123 -23 22 -23 21 0
-49 c0 -44 4 -52 34 -76 29 -23 36 -39 56 -120 12 -51 45 -178 72 -281 28
-104 48 -190 45 -193 -3 -3 -50 18 -106 45 l-101 51 0 -33 c0 -32 3 -34 119
-91 113 -56 119 -61 131 -99 6 -21 9 -41 6 -44 -3 -3 -60 24 -126 61 -67 36
-124 66 -126 66 -3 0 -4 -16 -2 -36 3 -36 5 -38 144 -113 l142 -76 25 -95 c14
-52 49 -195 77 -316 75 -329 117 -437 238 -624 68 -106 224 -261 352 -352 222
-158 567 -294 921 -363 73 -14 134 -27 136 -29 2 -1 5 -164 7 -362 4 -383 13
-483 60 -679 64 -264 187 -482 386 -685 157 -159 334 -282 596 -413 257 -129
491 -215 1223 -446 156 -49 287 -94 291 -98 4 -4 20 -78 35 -163 171 -965 608
-1801 1250 -2393 449 -414 916 -647 1458 -728 l157 -24 54 -90 53 -90 6 -120
c17 -308 107 -606 252 -832 45 -70 49 -73 85 -73 l38 0 -56 82 c-105 157 -201
397 -231 583 -11 63 -29 255 -25 255 1 0 42 -51 90 -112 109 -140 305 -337
444 -447 131 -104 323 -232 458 -305 98 -53 106 -56 175 -56 l72 0 -152 79
c-164 85 -388 229 -523 337 -177 141 -400 383 -531 576 -36 52 -39 62 -39 125
l0 68 418 1 c229 1 522 7 650 12 l232 11 98 -36 c202 -74 451 -155 714 -233
636 -189 724 -223 841 -331 l65 -59 16 -87 c20 -110 46 -341 46 -410 0 -50 1
-53 26 -53 l26 0 -6 178 c-3 97 -8 195 -11 217 -5 30 -4 36 4 25 8 -11 11 0
11 44 0 48 -5 64 -28 95 -17 21 -36 66 -47 111 -10 41 -33 118 -51 170 -18 52
-31 97 -28 99 3 4 53 -25 127 -73 l27 -18 0 38 c0 38 -2 40 -77 86 -43 26 -89
52 -103 58 -17 7 -40 41 -72 103 -26 51 -74 134 -107 185 -33 50 -59 92 -56
92 3 0 334 -129 403 -157 8 -3 12 5 12 24 0 29 -3 31 -230 123 -127 51 -229
95 -227 97 5 4 292 -58 390 -86 l67 -18 0 33 c0 32 -2 34 -67 53 -92 27 -285
75 -413 102 -96 20 -109 25 -150 63 -113 105 -272 207 -439 282 -110 50 -126
64 -192 166 -115 180 -182 401 -208 688 -14 144 -14 330 -2 330 29 0 246 -46
379 -80 270 -70 531 -189 712 -324 106 -80 271 -249 330 -340 l45 -68 3 52 c3
57 -3 68 -107 189 -251 289 -714 514 -1272 617 l-97 17 -5 391 c-5 394 -13
493 -52 668 -68 303 -213 559 -442 779 -177 169 -338 278 -613 413 -274 135
-431 193 -1145 422 -230 74 -421 136 -422 138 -2 2 -13 55 -23 118 -119 694
-369 1332 -731 1868 -422 624 -1004 1110 -1574 1313 -132 47 -215 71 -360 102
-104 23 -296 54 -332 55 -6 0 -36 42 -66 93 l-54 92 -7 115 c-22 367 -115 665
-285 916 -95 139 -102 146 -144 142 l-37 -3 75 -100 c84 -110 199 -331 239
-456 36 -112 63 -249 76 -377 7 -63 10 -115 8 -118 -2 -2 -36 38 -75 89 -281
365 -670 676 -1129 899 l-141 69 -84 -3 -84 -3 95 -39 c243 -99 531 -263 753
-429 229 -170 464 -415 618 -643 48 -72 49 -74 49 -150 l0 -76 -232 6 c-128 4
-393 2 -588 -4 -681 -20 -1057 -24 -1246 -11 -160 11 -190 16 -284 48 -157 52
-213 86 -316 188 -110 109 -171 200 -274 410 -77 156 -262 593 -282 668 -10
35 -13 37 -50 37 -34 0 -39 -3 -33 -17z m202 -483 c86 -206 172 -376 241 -480
65 -98 183 -225 251 -271 l46 -31 -35 7 c-110 23 -366 115 -399 143 -55 47
-158 424 -195 717 -21 161 -20 184 5 120 11 -27 50 -120 86 -205z m-55 -629
l107 -64 52 -101 c77 -151 199 -324 311 -441 55 -58 97 -105 94 -105 -12 0
-227 90 -387 162 l-156 69 -16 57 c-33 118 -115 428 -122 461 -4 18 -3 32 1
30 5 -2 57 -33 116 -68z m260 -122 c133 -53 319 -99 528 -133 155 -25 797
-223 1180 -363 421 -155 830 -354 1075 -523 l40 -28 10 -163 c6 -90 10 -165 9
-167 -1 -2 -114 24 -251 57 -136 33 -287 69 -335 80 -48 11 -221 65 -385 120
-336 112 -592 188 -871 260 -172 44 -204 56 -338 125 -82 42 -188 105 -235
141 -158 118 -324 314 -441 518 -45 78 -54 97 -43 97 2 0 28 -9 57 -21z m2985
-96 c-11 -10 -26 8 -20 23 5 15 7 14 15 -1 6 -9 7 -19 5 -22z m-209 -50 l112
-6 0 -51 c0 -28 -11 -181 -25 -341 -14 -159 -25 -320 -25 -357 0 -38 -3 -68
-6 -68 -3 0 -24 13 -47 28 -101 69 -307 183 -492 273 -327 158 -562 248 -1033
394 -169 53 -311 97 -317 99 -5 2 114 4 265 4 252 1 908 19 955 26 40 6 503 6
613 -1z m319 -143 c104 -213 188 -434 268 -713 36 -128 58 -219 121 -507 4
-18 -31 11 -133 111 -143 141 -270 250 -388 334 l-68 49 7 129 c4 71 15 225
26 341 10 116 22 251 26 299 l6 88 37 -3 c36 -3 37 -5 98 -128z m350 59 c507
-124 948 -378 1367 -788 543 -533 941 -1252 1136 -2056 42 -169 95 -454 86
-462 -2 -3 -143 39 -313 92 -169 53 -332 104 -362 113 -60 19 -47 -2 -137 212
-26 63 -85 187 -129 275 -332 655 -706 983 -1381 1211 -77 26 -140 48 -141 49
-1 0 -16 68 -33 151 -91 439 -210 811 -369 1148 -28 59 -51 109 -51 110 0 8
224 -30 327 -55z m-3556 -245 c57 -25 214 -91 349 -146 135 -55 256 -106 270
-114 l25 -14 -25 5 c-287 57 -459 108 -621 183 -84 40 -85 41 -96 86 -5 25 -9
46 -8 46 1 0 49 -21 106 -46z m64 -183 c133 -55 327 -109 612 -171 270 -59
301 -72 452 -185 262 -197 409 -451 466 -802 12 -73 34 -359 35 -457 0 -17 -5
-18 -52 -12 -98 13 -362 77 -493 121 -300 99 -523 236 -705 432 -181 196 -278
406 -355 768 -30 144 -54 244 -82 339 -4 13 -1 17 8 13 8 -3 59 -24 114 -46z
m1536 -455 c123 -36 325 -90 447 -121 123 -31 288 -80 366 -110 246 -92 573
-243 580 -268 64 -214 95 -291 178 -436 108 -189 285 -393 474 -547 52 -42 96
-86 99 -98 6 -29 11 -106 7 -106 -2 0 -65 25 -141 55 -455 180 -932 303 -1446
374 -121 17 -278 38 -350 48 l-130 18 -7 180 c-18 494 -130 790 -402 1056
l-79 78 90 -29 c50 -16 191 -58 314 -94z m1578 -115 c52 -42 147 -126 210
-188 l116 -112 -90 25 c-49 14 -157 42 -239 64 -82 22 -150 41 -153 44 -2 2
-7 71 -10 152 l-6 149 39 -29 c21 -16 81 -64 133 -105z m-304 -205 c83 -20 90
-24 93 -49 l3 -26 -53 23 c-118 54 -182 86 -158 80 14 -3 66 -15 115 -28z
m463 -122 c123 -35 232 -69 243 -74 35 -19 47 -54 68 -192 30 -197 33 -190
-50 -116 -100 90 -280 222 -404 298 -148 90 -155 96 -155 132 0 30 1 30 38 23
20 -4 138 -36 260 -71z m-191 -135 c170 -103 376 -263 491 -381 l53 -54 20
-195 c11 -107 18 -209 17 -227 l-3 -32 -110 93 c-182 155 -335 347 -434 545
-60 120 -123 292 -106 292 2 0 35 -19 72 -41z m896 -103 c440 -192 715 -432
955 -832 100 -167 334 -654 315 -654 -17 0 -420 134 -618 205 -344 125 -313
106 -381 233 -31 59 -67 123 -79 142 -13 19 -35 80 -50 135 -74 268 -231 577
-421 828 -24 31 -44 59 -44 62 0 8 199 -65 323 -119z m-212 -161 c35 -55 89
-149 120 -210 57 -110 133 -284 127 -290 -2 -2 -36 38 -75 89 -40 51 -113 136
-163 189 -49 53 -90 103 -90 109 0 7 -9 73 -19 147 l-18 134 28 -34 c15 -19
56 -79 90 -134z m81 -419 c129 -158 244 -334 257 -395 21 -98 21 -98 -66 -50
-96 53 -242 142 -273 167 -22 18 -25 33 -41 198 -10 99 -18 195 -18 214 l0 35
30 -35 c17 -19 67 -79 111 -134z m-1887 -36 c438 -57 606 -89 900 -170 297
-81 663 -207 795 -273 l45 -22 18 -120 c53 -358 144 -623 316 -920 l58 -100
-8 -105 c-15 -218 -6 -565 21 -780 4 -36 7 -66 5 -67 -2 -4 -502 155 -794 253
-653 218 -1012 412 -1288 697 -225 231 -335 475 -388 857 -11 77 -18 229 -22
459 -6 333 -5 343 13 337 10 -3 159 -24 329 -46z m1923 -397 c41 -24 114 -64
163 -88 86 -44 89 -46 89 -79 l0 -34 -182 85 c-101 47 -186 91 -190 97 -4 6
-8 31 -8 55 l0 43 28 -18 c15 -10 60 -37 100 -61z m88 -188 l177 -85 -6 -212
c-5 -235 -36 -610 -48 -602 -5 3 -33 51 -63 107 -100 188 -172 396 -220 637
-33 169 -41 240 -27 240 6 0 90 -38 187 -85z m255 14 c16 -8 59 -85 59 -105 0
-11 -78 37 -84 51 -8 21 -8 65 0 65 3 0 14 -5 25 -11z m240 -100 c57 -23 264
-94 459 -159 l355 -117 23 -47 c22 -46 153 -429 166 -490 l7 -28 -24 18 c-14
11 -85 69 -160 131 -235 194 -513 391 -776 548 -108 65 -115 71 -137 122 -24
53 -27 63 -21 63 2 0 50 -19 108 -41z m-196 -69 c29 -17 57 -36 63 -43 18 -22
110 -279 146 -407 52 -189 82 -333 116 -565 28 -194 50 -324 66 -392 6 -24 -4
-18 -71 47 -154 149 -435 488 -435 524 0 6 9 108 20 226 12 118 24 311 27 428
3 116 8 212 11 212 2 0 28 -14 57 -30z m252 -147 c251 -152 679 -466 903 -663
93 -83 83 -50 159 -500 69 -407 108 -579 193 -838 22 -68 38 -125 36 -128 -8
-7 -355 220 -527 345 -190 138 -461 352 -502 397 -34 37 -53 120 -114 484 -65
392 -131 671 -208 884 -14 36 -23 66 -21 66 2 0 38 -21 81 -47z m1235 -211
c315 -100 338 -109 343 -132 15 -74 35 -401 35 -575 0 -220 -9 -425 -20 -425
-3 0 -33 39 -67 88 -88 126 -200 259 -345 408 -70 72 -128 138 -128 147 0 31
-90 327 -140 460 -27 73 -50 137 -50 141 0 5 8 5 18 1 9 -3 169 -55 354 -113z
m812 -257 c589 -186 822 -272 1101 -405 269 -127 463 -259 642 -433 260 -253
384 -519 439 -938 10 -82 18 -240 21 -471 7 -396 18 -356 -91 -338 -34 5 -185
26 -336 46 -636 83 -1153 222 -1735 467 l-130 55 -21 143 c-51 351 -124 593
-244 817 l-39 72 11 113 c22 222 12 737 -18 955 -4 23 -3 42 0 42 3 0 183 -56
400 -125z m-2352 -415 c73 -98 228 -268 366 -403 81 -78 112 -116 117 -140 10
-47 71 -236 117 -360 22 -60 37 -111 34 -114 -5 -6 -655 195 -669 207 -10 8
-34 249 -42 427 -8 152 3 480 15 466 4 -4 32 -42 62 -83z m1672 -254 c41 -50
106 -140 146 -200 84 -125 80 -98 55 -371 -9 -88 -18 -251 -22 -362 -3 -112
-8 -203 -10 -203 -15 0 -117 67 -129 85 -22 34 -100 250 -144 402 -49 168 -91
368 -120 568 -18 130 -37 251 -56 360 -4 26 9 16 101 -79 58 -61 139 -151 179
-200z m-918 -487 c255 -205 574 -428 802 -560 50 -29 92 -57 92 -62 0 -5 -8
-6 -17 -2 -115 47 -331 124 -568 201 -159 52 -300 99 -311 104 -15 6 -31 34
-53 89 -38 100 -121 349 -121 362 0 6 13 0 28 -13 16 -13 82 -66 148 -119z
m1252 -56 c60 -141 102 -278 135 -445 31 -151 52 -306 44 -315 -12 -11 -256
116 -268 139 -14 27 -7 296 16 548 8 91 15 171 15 178 0 6 2 12 4 12 2 0 26
-53 54 -117z m-1686 -189 c183 -58 338 -107 343 -108 6 -2 32 -57 59 -122 248
-601 517 -969 882 -1209 150 -99 411 -221 622 -290 53 -17 88 -35 97 -48 8
-12 26 -80 40 -152 79 -386 199 -760 346 -1072 27 -58 48 -107 47 -109 -7 -6
-217 30 -328 57 -561 137 -1094 488 -1536 1014 -438 520 -770 1258 -899 1995
-14 79 -25 146 -25 147 0 8 43 -5 352 -103z m658 -209 c231 -74 399 -134 582
-207 l128 -52 56 -113 c31 -63 80 -153 109 -202 36 -61 63 -125 89 -212 62
-208 160 -428 264 -599 22 -36 36 -66 32 -68 -4 -2 -61 18 -127 44 -533 209
-826 462 -1091 939 -91 164 -264 535 -249 535 3 0 96 -29 207 -65z m884 -367
c13 -67 5 -73 -24 -18 -36 68 -36 72 -6 59 15 -7 26 -23 30 -41z m161 -66
c158 -95 184 -115 190 -147 3 -16 12 -109 20 -205 9 -96 18 -187 21 -202 3
-16 3 -28 1 -28 -8 0 -168 216 -231 310 -51 78 -58 96 -76 188 -22 113 -24
132 -12 132 4 0 43 -22 87 -48z m175 -22 c0 -5 -22 4 -50 21 -27 17 -50 33
-50 35 0 2 23 -7 50 -21 28 -14 50 -30 50 -35z m413 -161 c192 -73 510 -174
702 -224 304 -78 434 -101 1040 -183 l200 -27 7 -178 c15 -389 91 -682 228
-882 17 -24 30 -46 30 -48 0 -3 -44 10 -97 30 -224 80 -744 220 -1333 358
-200 48 -367 88 -369 91 -3 3 -13 46 -24 97 -76 379 -304 731 -654 1011 -43
34 -73 66 -73 77 0 15 13 12 108 -28 59 -25 165 -67 235 -94z m-206 -90 c203
-172 384 -428 466 -656 44 -122 81 -273 67 -273 -11 0 -150 100 -240 173 -83
68 -346 322 -361 349 -5 10 -18 106 -29 215 -11 109 -22 220 -25 246 -6 49 -6
49 16 33 12 -8 60 -47 106 -87z m-247 -312 c122 -150 115 -137 129 -244 7 -54
15 -109 17 -123 8 -38 -56 65 -126 201 -54 106 -131 282 -129 298 0 3 10 -7
22 -23 12 -16 51 -65 87 -109z m510 -510 c55 -44 99 -81 97 -83 -9 -9 -377
103 -377 114 0 4 -7 48 -15 97 -8 50 -18 105 -21 124 -5 33 -2 31 105 -69 60
-56 155 -139 211 -183z m-18 -122 c102 -29 212 -59 243 -66 42 -9 59 -18 65
-34 12 -31 22 -345 13 -379 l-9 -29 -171 167 c-146 142 -293 304 -351 388 -15
20 -14 21 4 14 10 -4 103 -32 206 -61z m27 -325 c80 -80 179 -175 219 -210
l74 -65 -16 -180 c-9 -99 -22 -249 -28 -332 l-12 -153 -36 0 -37 0 -61 128
c-140 291 -255 635 -332 987 l-19 90 51 -60 c28 -33 117 -125 197 -205z m537
98 c273 -139 524 -240 1014 -406 355 -120 562 -182 883 -266 312 -82 423 -132
493 -222 67 -85 115 -158 163 -246 l42 -77 -63 25 c-171 67 -381 115 -642 145
-50 6 -253 14 -451 18 l-360 7 -160 67 c-374 158 -758 369 -997 547 l-100 75
-2 213 c-1 117 1 211 4 210 4 -2 82 -42 176 -90z m379 -8 c566 -134 823 -204
1118 -307 174 -60 179 -63 272 -152 44 -43 97 -90 118 -106 21 -15 36 -29 34
-32 -5 -5 -419 115 -627 182 -530 171 -924 319 -1155 435 -77 38 -131 68 -120
65 11 -3 173 -41 360 -85z m-353 -552 c260 -175 442 -274 748 -409 l145 -64
-105 -6 c-213 -13 -740 -22 -894 -14 l-159 7 7 92 c10 136 36 445 42 494 5 40
7 42 24 30 10 -7 96 -65 192 -130z m1888 68 c61 -32 189 -116 235 -154 l30
-25 -28 7 c-35 8 -112 55 -207 125 -123 92 -127 98 -30 47z m-116 -611 c161
-14 292 -33 401 -56 163 -36 409 -123 436 -155 13 -16 110 -296 104 -302 -2
-2 -25 13 -52 33 -97 74 -221 121 -693 260 -236 70 -580 181 -665 214 l-50 20
175 0 c96 1 251 -6 344 -14z m-2104 -15 c0 -11 -2 -20 -5 -20 -2 0 -9 9 -15
20 -9 16 -8 20 5 20 8 0 15 -9 15 -20z"/>
</g>
</svg>
