<?xml version="1.0" standalone="no"?>
<!DOCTYPE svg PUBLIC "-//W3C//DTD SVG 20010904//EN"
 "http://www.w3.org/TR/2001/REC-SVG-20010904/DTD/svg10.dtd">
<svg version="1.0" xmlns="http://www.w3.org/2000/svg"
 width="1080.000000pt" height="1080.000000pt" viewBox="0 0 1080.000000 1080.000000"
 preserveAspectRatio="xMidYMid meet">

<g transform="translate(0.000000,1080.000000) scale(0.100000,-0.100000)"
fill="#fff" stroke="none">
<path d="M5390 10763 c0 -29 -96 -520 -166 -853 -264 -1244 -531 -2006 -898
-2565 -124 -189 -235 -324 -391 -480 -420 -420 -937 -703 -1760 -964 -442
-139 -1014 -275 -1822 -433 -178 -34 -323 -65 -323 -69 0 -3 33 -11 73 -18
185 -33 755 -149 1057 -216 1696 -377 2544 -819 3105 -1620 432 -616 722
-1464 1024 -2995 100 -505 105 -530 112 -522 3 4 11 45 18 92 18 121 131 687
197 984 244 1099 502 1818 836 2328 582 889 1427 1346 3223 1742 239 53 870
180 1023 207 39 7 72 15 72 19 0 4 -21 11 -47 15 -236 34 -1119 222 -1515 321
-1002 252 -1661 540 -2146 940 -684 564 -1089 1416 -1446 3039 -54 248 -188
916 -201 1008 -7 46 -25 76 -25 40z"/>
</g>
</svg>
