<?xml version="1.0" standalone="no"?>
<!DOCTYPE svg PUBLIC "-//W3C//DTD SVG 20010904//EN"
 "http://www.w3.org/TR/2001/REC-SVG-20010904/DTD/svg10.dtd">
<svg version="1.0" xmlns="http://www.w3.org/2000/svg"
 width="1080.000000pt" height="1080.000000pt" viewBox="0 0 1080.000000 1080.000000"
 preserveAspectRatio="xMidYMid meet">

<g transform="translate(0.000000,1080.000000) scale(0.100000,-0.100000)"
fill="#000000" stroke="none">
<path d="M5330 10692 c-19 -9 -43 -33 -55 -52 -20 -34 -20 -52 -23 -820 -2
-432 0 -810 3 -840 6 -47 13 -61 46 -92 36 -34 45 -38 92 -38 62 0 108 25 134
72 17 31 18 83 18 858 0 807 0 826 -20 859 -39 65 -125 89 -195 53z"/>
<path d="M3650 9531 c-48 -25 -80 -75 -80 -124 0 -29 39 -134 141 -376 174
-414 170 -406 219 -431 73 -37 148 -17 190 52 38 62 31 89 -129 467 -157 370
-175 403 -240 421 -50 14 -61 13 -101 -9z"/>
<path d="M7007 9521 c-15 -10 -34 -27 -41 -37 -25 -36 -308 -719 -313 -754 -9
-74 62 -150 140 -150 43 0 106 31 126 61 32 52 311 733 311 760 0 45 -29 99
-64 120 -41 25 -121 25 -159 0z"/>
<path d="M1624 9186 c-64 -28 -97 -104 -76 -175 9 -30 117 -141 544 -562 704
-693 655 -649 720 -649 92 0 148 53 148 140 0 23 -6 53 -14 68 -19 37 -1170
1164 -1204 1179 -35 16 -80 15 -118 -1z"/>
<path d="M9055 9187 c-16 -8 -294 -274 -617 -591 -503 -494 -589 -583 -598
-617 -15 -55 2 -110 45 -148 30 -26 44 -31 88 -31 34 0 62 7 82 19 34 21 1156
1123 1182 1161 22 32 22 107 -1 145 -38 64 -117 91 -181 62z"/>
<path d="M1254 7181 c-36 -22 -64 -75 -64 -121 0 -41 25 -95 53 -113 26 -17
721 -302 758 -310 62 -15 141 37 160 105 13 49 -2 106 -35 138 -14 12 -188 90
-387 171 -389 161 -421 169 -485 130z"/>
<path d="M9061 7049 c-201 -82 -374 -157 -384 -167 -24 -21 -47 -73 -47 -107
0 -78 85 -153 159 -141 32 5 702 274 759 305 55 29 78 120 47 180 -8 16 -28
40 -45 55 -58 48 -84 42 -489 -125z"/>
<path d="M100 5539 c-120 -48 -128 -209 -13 -268 16 -8 260 -11 864 -11 837 0
842 0 876 21 48 30 66 71 61 136 -3 38 -11 61 -29 79 -51 56 -21 54 -911 53
-520 0 -832 -4 -848 -10z"/>
<path d="M8995 5536 c-106 -46 -118 -198 -22 -256 31 -19 57 -20 877 -20 820
0 846 1 877 20 41 25 66 73 66 128 0 46 -20 81 -67 116 -27 21 -36 21 -864 23
-681 2 -843 0 -867 -11z"/>
<path d="M1620 4020 c-434 -178 -440 -182 -430 -300 5 -62 71 -120 136 -120
23 0 170 55 402 150 435 178 443 183 433 299 -6 66 -69 121 -137 121 -27 -1
-156 -49 -404 -150z"/>
<path d="M8714 4156 c-39 -17 -73 -65 -81 -110 -7 -46 26 -115 67 -139 66 -39
736 -307 768 -307 128 0 191 166 95 252 -29 26 -732 310 -778 315 -22 2 -54
-3 -71 -11z"/>
<path d="M2753 2993 c-43 -24 -1180 -1147 -1200 -1186 -37 -71 11 -176 89
-198 87 -23 76 -32 628 511 278 274 546 539 595 589 l90 91 0 64 c0 55 -4 68
-25 91 -52 56 -118 70 -177 38z"/>
<path d="M7913 2989 c-30 -15 -48 -33 -62 -63 -49 -100 -66 -79 596 -730 634
-624 620 -612 702 -588 74 23 119 98 104 173 -7 39 -67 101 -756 778 -496 487
-485 479 -584 430z"/>
<path d="M3925 2202 c-16 -11 -35 -25 -41 -33 -7 -8 -80 -176 -163 -373 -112
-266 -151 -370 -151 -400 0 -144 198 -193 268 -67 11 20 84 187 161 372 152
363 160 391 121 454 -38 61 -134 84 -195 47z"/>
<path d="M6730 2202 c-43 -23 -83 -94 -77 -137 5 -33 289 -716 313 -753 23
-35 96 -64 140 -56 73 14 134 97 120 166 -11 53 -297 722 -319 746 -50 54
-115 66 -177 34z"/>
<path d="M5329 1939 c-20 -12 -45 -35 -55 -53 -18 -30 -19 -63 -19 -863 0
-824 0 -832 21 -859 37 -50 68 -66 124 -66 56 0 87 16 124 66 21 27 21 35 21
861 0 830 0 834 -21 862 -53 71 -127 91 -195 52z"/>
</g>
</svg>
