<?xml version="1.0" standalone="no"?>
<!DOCTYPE svg PUBLIC "-//W3C//DTD SVG 20010904//EN"
 "http://www.w3.org/TR/2001/REC-SVG-20010904/DTD/svg10.dtd">
<svg version="1.0" xmlns="http://www.w3.org/2000/svg"
 width="1080.000000pt" height="1080.000000pt" viewBox="0 0 1080.000000 1080.000000"
 preserveAspectRatio="xMidYMid meet">

<g transform="translate(0.000000,1080.000000) scale(0.100000,-0.100000)"
fill="#2EC774" stroke="none">
<path d="M54 10778 c3 -13 13 -61 22 -108 34 -179 142 -615 222 -893 3 -14
-32 0 -147 57 l-151 76 0 -43 0 -43 163 -80 162 -79 18 -54 c10 -30 16 -58 15
-62 -2 -5 -81 34 -176 86 -96 52 -176 95 -178 95 -2 0 -4 -22 -4 -48 l0 -48
193 -103 c105 -57 195 -106 199 -110 8 -8 94 -346 148 -591 109 -485 238 -741
509 -1010 194 -192 365 -308 633 -431 252 -116 588 -219 893 -273 l120 -21 -3
-270 c-9 -815 62 -1210 285 -1600 96 -168 295 -401 463 -542 152 -128 376
-272 600 -384 371 -186 587 -265 1650 -605 184 -59 342 -110 351 -115 10 -5
19 -28 23 -61 9 -70 61 -334 92 -473 159 -702 436 -1354 820 -1930 249 -374
584 -754 893 -1013 l121 -102 66 0 65 0 -78 62 c-218 172 -524 471 -699 683
-594 718 -1010 1652 -1179 2643 -15 85 -25 155 -23 157 5 5 911 -284 920 -293
3 -4 26 -56 51 -117 335 -814 706 -1322 1198 -1637 215 -138 513 -273 859
-387 l66 -21 28 -148 c41 -211 124 -537 191 -755 l58 -187 47 0 48 0 -54 165
c-57 174 -114 385 -158 575 -35 157 -67 313 -63 316 1 1 88 -22 192 -52 105
-30 266 -75 359 -99 92 -24 170 -46 172 -48 3 -2 9 -69 15 -148 11 -137 7
-421 -8 -621 l-6 -88 40 0 40 0 7 73 c12 143 18 534 8 647 -5 63 -9 116 -8
117 1 2 366 -86 634 -152 20 -5 22 -2 22 39 l0 44 -197 47 c-296 70 -464 113
-469 118 -3 3 -16 58 -29 123 -62 304 -199 600 -402 867 -119 157 -376 407
-523 510 -19 13 -24 34 -41 179 -54 464 -131 780 -263 1079 -258 585 -780
1170 -1577 1765 -272 204 -530 377 -774 522 -57 33 -105 69 -112 83 -7 13 -48
98 -92 189 -43 91 -114 225 -156 298 -62 107 -83 156 -110 250 -125 440 -350
854 -682 1255 -106 129 -374 396 -518 518 -303 256 -657 484 -1057 684 -552
275 -1007 440 -2108 765 -199 58 -364 117 -442 156 -171 86 -334 257 -482 507
l-70 117 -43 0 c-24 0 -43 -4 -43 -8 0 -20 148 -265 210 -347 78 -103 199
-223 286 -282 138 -94 281 -148 749 -283 377 -109 1031 -328 1298 -434 702
-280 1184 -554 1632 -927 462 -385 865 -920 1073 -1424 72 -175 72 -179 -5
-77 -193 254 -463 533 -700 723 -496 397 -978 628 -2078 994 -408 136 -697
222 -1079 320 -188 49 -233 64 -367 129 -85 40 -230 104 -324 141 -431 170
-512 204 -695 287 -107 49 -199 93 -204 98 -18 18 -192 682 -240 920 -15 69
-28 135 -31 148 -5 18 -12 22 -45 22 -37 0 -40 -2 -36 -22z m564 -1246 c97
-43 320 -136 495 -207 175 -71 314 -131 309 -133 -18 -6 -426 89 -537 125
-119 38 -295 107 -374 148 -45 22 -52 30 -66 77 -16 56 -18 68 -10 68 3 0 86
-35 183 -78z m143 -263 c59 -21 174 -56 255 -78 150 -40 217 -56 574 -132 214
-45 215 -46 345 -131 280 -185 496 -438 605 -706 55 -136 101 -309 124 -467
17 -119 36 -382 36 -508 l0 -79 -27 6 c-16 3 -57 10 -93 16 -36 6 -144 30
-240 52 -504 116 -905 311 -1181 575 -215 207 -322 364 -428 631 -47 117 -78
229 -126 452 -30 140 -93 402 -111 462 -4 15 10 11 78 -18 46 -20 131 -54 189
-75z m1474 -368 c388 -107 923 -278 1335 -429 833 -304 1324 -585 1766 -1014
236 -230 475 -523 643 -789 38 -61 43 -79 66 -214 14 -80 25 -164 25 -186 l0
-39 -118 59 c-399 200 -919 400 -1402 541 -454 131 -760 190 -1545 295 -104
14 -199 27 -211 30 -20 4 -21 12 -27 222 -13 445 -80 740 -231 1018 -91 166
-259 363 -421 493 -92 74 -93 74 -75 68 8 -3 96 -28 195 -55z m945 -1876 c643
-87 878 -133 1310 -256 502 -144 906 -298 1372 -526 248 -121 228 -98 228
-267 0 -149 -16 -387 -52 -776 -31 -324 -33 -371 -33 -770 0 -345 3 -456 18
-589 10 -89 16 -165 13 -168 -6 -6 -533 157 -941 292 -432 143 -702 249 -980
386 -652 320 -1038 711 -1208 1220 -101 301 -136 620 -137 1223 l0 289 38 -7
c20 -3 188 -26 372 -51z m3087 -892 c-3 -2 -28 7 -55 21 -56 29 -57 31 -66
161 l-6 80 66 -129 c36 -70 63 -130 61 -133z m60 -137 c17 -15 113 -273 167
-448 83 -268 138 -526 186 -868 69 -488 144 -794 292 -1184 26 -71 47 -133 46
-137 -2 -4 -176 48 -388 117 -212 68 -411 131 -443 140 -67 20 -60 2 -84 224
-25 231 -25 891 0 1170 50 563 58 682 60 872 l1 207 76 -40 c41 -23 80 -46 87
-53z m231 -133 c196 -118 494 -321 727 -497 863 -648 1347 -1219 1586 -1871
81 -220 147 -537 187 -902 5 -40 7 -73 6 -73 -2 0 -34 20 -71 44 -233 150
-523 290 -879 424 -158 60 -662 230 -866 292 l-108 33 -41 106 c-100 258 -187
543 -244 795 -14 64 -52 274 -84 468 -63 373 -118 634 -181 857 -34 118 -92
298 -115 354 -10 25 -3 22 83 -30z m890 -2727 c510 -166 796 -275 1062 -403
267 -128 570 -310 570 -342 0 -82 73 -744 110 -1000 15 -108 27 -197 26 -198
-4 -4 -193 62 -316 110 -555 218 -935 513 -1227 952 -119 178 -250 425 -397
748 -84 184 -98 217 -91 217 3 0 121 -38 263 -84z m1806 -863 c247 -201 480
-481 603 -728 80 -160 144 -348 177 -525 13 -65 12 -70 -3 -66 -9 3 -86 23
-171 45 -191 49 -532 150 -542 159 -17 17 -84 488 -117 822 -32 325 -34 350
-26 350 4 0 40 -26 79 -57z"/>
</g>
</svg>
