<?xml version="1.0" standalone="no"?>
<!DOCTYPE svg PUBLIC "-//W3C//DTD SVG 20010904//EN"
 "http://www.w3.org/TR/2001/REC-SVG-20010904/DTD/svg10.dtd">
<svg version="1.0" xmlns="http://www.w3.org/2000/svg"
 width="1080.000000pt" height="1080.000000pt" viewBox="0 0 1080.000000 1080.000000"
 preserveAspectRatio="xMidYMid meet">

<g transform="translate(0.000000,1080.000000) scale(0.100000,-0.100000)"
fill="#2EC774" stroke="none">
<path d="M8035 9194 c-171 -23 -261 -46 -387 -99 -189 -80 -425 -240 -608
-412 -479 -449 -887 -696 -1347 -814 -186 -47 -323 -62 -528 -56 -267 7 -457
48 -730 157 -289 115 -450 145 -745 137 -167 -4 -215 -9 -340 -36 -366 -78
-722 -235 -1120 -496 -590 -385 -1233 -982 -1514 -1405 -115 -173 -207 -380
-241 -546 -19 -92 -21 -254 -5 -344 72 -396 429 -745 1059 -1034 145 -67 670
-270 961 -373 938 -331 1592 -510 2180 -599 162 -24 211 -26 675 -34 558 -9
778 -25 1220 -86 390 -54 776 -125 1280 -234 365 -79 455 -92 665 -92 271 -1
448 37 665 141 145 70 234 132 355 247 154 147 270 305 386 528 214 412 370
1019 424 1651 13 157 13 540 -1 702 -47 575 -211 1130 -481 1628 -296 545
-681 1009 -1030 1241 -151 100 -325 175 -488 209 -75 16 -249 27 -305 19z"/>
</g>
</svg>
