<?xml version="1.0" standalone="no"?>
<!DOCTYPE svg PUBLIC "-//W3C//DTD SVG 20010904//EN"
 "http://www.w3.org/TR/2001/REC-SVG-20010904/DTD/svg10.dtd">
<svg version="1.0" xmlns="http://www.w3.org/2000/svg"
 width="1080.000000pt" height="1080.000000pt" viewBox="0 0 1080.000000 1080.000000"
 preserveAspectRatio="xMidYMid meet">

<g transform="translate(0.000000,1080.000000) scale(0.100000,-0.100000)"
fill="#2EC774" stroke="none">
<path d="M6600 9949 c-338 -35 -811 -162 -1188 -320 -246 -103 -430 -215 -867
-527 -268 -193 -445 -303 -670 -418 -608 -313 -1255 -501 -1970 -575 -60 -6
-308 -14 -550 -19 -497 -9 -557 -16 -725 -89 -307 -132 -498 -431 -540 -848
-30 -293 35 -610 194 -938 99 -204 191 -356 441 -720 250 -366 343 -517 441
-720 156 -320 224 -610 211 -895 -7 -155 -20 -223 -101 -520 -98 -363 -101
-378 -101 -585 1 -151 5 -194 23 -268 121 -484 464 -867 1017 -1136 377 -184
1179 -454 1590 -535 222 -44 514 -59 692 -36 417 56 794 255 1289 682 73 62
226 194 340 293 403 348 637 512 892 626 355 158 599 186 1402 160 635 -20
983 59 1336 304 499 347 834 942 930 1650 21 156 24 532 6 700 -96 863 -429
1626 -1145 2620 -228 316 -727 955 -933 1195 -433 503 -827 775 -1274 879
-201 47 -506 64 -740 40z"/>
</g>
</svg>
